<svg id="e5YOopWecGK1" xmlns="http://www.w3.org/2000/svg" xmlns:xlink="http://www.w3.org/1999/xlink" viewBox="0 0 600 600" shape-rendering="geometricPrecision" text-rendering="geometricPrecision" project-id="04a99b82a4e34720b08a4dc5c7745155" export-id="aba57419845e4526804c0f7840079402" cached="false"><path d="M67.863603,322.11662c-41.711538,35.902794-42.234462,58.297627,7.887746,73.978936q-19.380464-.794161,235.798657,0c54.451326-9.140824,49.644017-36.989468,0-73.978936" transform="translate(7.269511-1.67758)" fill="none" stroke="#3f5787" stroke-width="1.2"/><path d="" fill="none" stroke="#3f5787" stroke-width="1.2"/><path d="M73.503581,319.750597c.604.302,2.274833,1.358218,2.430773,2.137908" fill="none" stroke="#3f5787" stroke-width="1.2"/><path d="M72.94714,320.439039c.805408.502519,2.123138,1.00872,3.04578,1.595901" transform="translate(0 0.000001)" fill="none" stroke="#3f5787" stroke-width="1.2"/><path d="M74.718967,322.767098c-.153983-.706918-1.43825-1.373288-1.801117-2.225768" fill="none" stroke="#3f5787" stroke-width="1.2"/><path d="M75.133113,322.767098c-1.06958-.46794-2.011371-1.311406-2.859561-1.947546" fill="none" stroke="#3f5787" stroke-width="1.2"/><path d="M68.95818,322.58644c1.29668,1.03735,3.77731,2.00037,4.41667,3.59876" fill="none" stroke="#3f5787" stroke-width="1.2"/><path d="M69.6125,321.85033c1.55763.93458,3.78586,2.24411,4.1713,4.17129" fill="none" stroke="#3f5787" stroke-width="1.2"/><path d="M74.35633,325.3673c-.37597-1.87986-2.34676-2.72173-3.92593-3.35339" fill="none" stroke="#3f5787" stroke-width="1.2"/><path d="M70.34861,320.95064c1.40318,0,5.42236,1.92367,5.07099,3.68055" fill="none" stroke="#3f5787" stroke-width="1.2"/><path d="M76.2375,323.97687c-2.00309,0-3.65149-.61207-5.23457-1.79938" fill="none" stroke="#3f5787" stroke-width="1.2"/><path d="M71.98442,319.80557c1.19109,1.3896,2.02262,3.21626,2.69907,4.90741" fill="none" stroke="#3f5787" stroke-width="1.2"/><path d="M76.72824,323.40434c-1.72147,0-4.59073-1.42189-5.15278-3.10802" fill="none" stroke="#3f5787" stroke-width="1.2"/><path d="M72.31158,319.31483c1.49776,0,4.01553,2.58235,4.25308,4.00771" fill="none" stroke="#3f5787" stroke-width="1.2"/></svg>
